<?xml version="1.0" encoding="UTF-8"?>
<svg width="180px" height="18px" viewBox="0 0 180 18" version="1.1" xmlns="http://www.w3.org/2000/svg" xmlns:xlink="http://www.w3.org/1999/xlink">
    <!-- Generator: Sketch 52.4 (67378) - http://www.bohemiancoding.com/sketch -->
    <title>AmbassadorType</title>
    <desc>Created with Sketch.</desc>
    <g id="Page-1" stroke="none" stroke-width="1" fill="none" fill-rule="evenodd">
        <g id="AmbassadorType">
            <path d="M17.7859,16.7507 L12.3262,16.7507 L11.754,14.9387 L6.03196,14.9387 L5.45975,16.7507 L0,16.7507 L5.86506,1.25554 L11.9209,1.25554 L17.7859,16.7507 Z M10.4665,10.85 L8.89296,5.85531 L7.31941,10.85 L10.4665,10.85 Z M56.0895,16.7507 L46.0999,16.7507 L46.0999,1.25554 L55.7558,1.25554 C59.0459,1.25554 60.4764,3.39281 60.4764,5.20484 C60.4764,7.13303 59.3082,8.43397 57.7585,8.75921 C59.4751,9.01475 60.7864,10.548 60.7864,12.5459 C60.7864,14.7064 59.2843,16.7507 56.0895,16.7507 Z M54.6352,6.97041 C55.1359,6.97041 55.5889,6.59871 55.5889,6.04116 C55.5889,5.50684 55.1359,5.15838 54.6352,5.15838 L50.9159,5.15838 L50.9159,6.97041 L54.6352,6.97041 Z M54.7782,12.8479 C55.4697,12.8479 55.8988,12.453 55.8988,11.8722 C55.8988,11.3146 55.4697,10.8732 54.7782,10.8732 L50.9159,10.8732 L50.9159,12.8479 L54.7782,12.8479 Z M79.4143,16.7507 L73.9545,16.7507 L73.3823,14.9387 L67.6603,14.9387 L67.0881,16.7507 L61.6283,16.7507 L67.4934,1.25554 L73.5492,1.25554 L79.4143,16.7507 Z M72.0949,10.85 L70.5213,5.85531 L68.9478,10.85 L72.0949,10.85 Z M87.075,17.0295 C83.6895,17.0295 81.3768,16.0538 79.6841,14.567 L82.1874,11.0823 C83.3795,12.1974 85.1677,13.0802 87.3134,13.0802 C88.2194,13.0802 89.0777,12.8479 89.0777,12.2439 C89.0777,10.7571 80.2086,12.2671 80.2086,6.15732 C80.2086,3.5322 82.4497,1.02323 86.8127,1.02323 C89.4115,1.02323 91.748,1.7434 93.5599,3.18373 L90.985,6.50578 C89.6022,5.48361 87.8141,4.97253 86.3121,4.97253 C85.3584,4.97253 85.0961,5.27453 85.0961,5.66946 C85.0961,7.13303 93.9414,5.87854 93.9414,11.6399 C93.9414,15.0549 91.3427,17.0295 87.075,17.0295 Z M102.317,17.0295 C98.9319,17.0295 96.6192,16.0538 94.9265,14.567 L97.4298,11.0823 C98.6219,12.1974 100.41,13.0802 102.556,13.0802 C103.462,13.0802 104.32,12.8479 104.32,12.2439 C104.32,10.7571 95.451,12.2671 95.451,6.15732 C95.451,3.5322 97.6921,1.02323 102.055,1.02323 C104.654,1.02323 106.99,1.7434 108.802,3.18373 L106.227,6.50578 C104.845,5.48361 103.056,4.97253 101.554,4.97253 C100.601,4.97253 100.339,5.27453 100.339,5.66946 C100.339,7.13303 109.184,5.87854 109.184,11.6399 C109.184,15.0549 106.585,17.0295 102.317,17.0295 Z M127.216,16.7507 L121.756,16.7507 L121.184,14.9387 L115.462,14.9387 L114.89,16.7507 L109.43,16.7507 L115.295,1.25554 L121.351,1.25554 L127.216,16.7507 Z M119.896,10.85 L118.323,5.85531 L116.749,10.85 L119.896,10.85 Z M135.83,16.7507 L128.701,16.7507 L128.701,1.25554 L135.806,1.25554 C140.813,1.25554 144.532,4.04328 144.532,8.99152 C144.532,13.9398 140.813,16.7507 135.83,16.7507 Z M135.806,12.662 C138.214,12.662 139.645,10.9429 139.645,8.99152 C139.645,6.90071 138.405,5.34423 135.83,5.34423 L133.517,5.34423 L133.517,12.662 L135.806,12.662 Z M154.72,17.0295 C149.809,17.0295 146.018,13.7771 146.018,9.01475 C146.018,4.25236 149.809,1 154.72,1 C159.632,1 163.422,4.25236 163.422,9.01475 C163.422,13.7771 159.632,17.0295 154.72,17.0295 Z M154.72,12.8944 C157.033,12.8944 158.535,11.1752 158.535,9.01475 C158.535,6.85425 157.033,5.13515 154.72,5.13515 C152.408,5.13515 150.906,6.85425 150.906,9.01475 C150.906,11.1752 152.408,12.8944 154.72,12.8944 Z M180,16.7507 L174.516,16.7507 L172.323,11.8722 L170.583,11.8722 L170.583,16.7507 L165.766,16.7507 L165.766,1.25554 L174.254,1.25554 C177.973,1.25554 179.976,3.67158 179.976,6.57548 C179.976,9.24706 178.379,10.6642 177.115,11.2682 L180,16.7507 Z M173.515,7.7835 C174.326,7.7835 175.089,7.4118 175.089,6.55225 C175.089,5.71592 174.326,5.34423 173.515,5.34423 L170.583,5.34423 L170.583,7.7835 L173.515,7.7835 Z" id="Shape" fill="#000000"></path>
            <polygon id="Path" fill="#00C58A" points="19.0137 0.630396 19.0137 17.3985 43.0982 0.630396 43.0982 17.3985"></polygon>
        </g>
    </g>
</svg>