<?xml version="1.0" encoding="utf-8"?>
<!-- Generator: Adobe Illustrator 24.0.1, SVG Export Plug-In . SVG Version: 6.00 Build 0)  -->
<svg version="1.1" id="Layer_1" xmlns="http://www.w3.org/2000/svg" xmlns:xlink="http://www.w3.org/1999/xlink" x="0px" y="0px"
	 viewBox="0 0 500 166.2" style="enable-background:new 0 0 500 166.2;" xml:space="preserve">
<style type="text/css">
	.st0{fill:#0000F9;}
</style>
<g>
	<path class="st0" d="M6.7,166.2L18.3,43.6l22.3-2L31.1,142l39.5-3.6l-2.1,22.2L6.7,166.2z M121.7,157c-29.7,2.6-35-19.9-33.8-32.3
		l8.4-88.5l22.5-2l-8.4,88.5c-1.1,11.5,8.6,12.4,13.4,12c4.7-0.4,14.7-3,15.8-14.5l8.4-88.5l22.5-2l-8.4,88.7
		C160.9,130.7,151.5,154.4,121.7,157z M235.9,145.5L211.4,78l-6.3,70.2l-22.5,2l11.6-122.6l21.9-1.9l24.2,69.6l6.5-72.3l22.1-2
		l-11.6,122.6L235.9,145.5z M342.5,135.9l-4.6-27.4l-32.2,2.8l-9.9,28.7l-23.2,2.1l44-125.4l27.7-2.5l21.2,119.6L342.5,135.9z
		 M327.8,45.1l-14.5,43.8l21.3-1.9L327.8,45.1z M435.6,127.4l-17.9-45.3l-10,0.9l-4.5,47.3l-22.5,2L392.3,9.7l38.6-3.4
		c29.9-2.6,33.6,20.4,32.5,31.6l-0.5,5.3c-0.8,8.8-5.6,24.9-21.5,33.5l19.4,48.5L435.6,127.4z M440.7,40.4
		c1.1-11.4-7.4-12.3-12.3-11.9l-15.7,1.4l-2.9,30.8l16.1-1.4c4.8-0.4,13.3-2.7,14.4-14.2L440.7,40.4z"/>
	<g>
		<path class="st0" d="M488.1,8.6l-1.7,0.2l-0.3,3.4l1.8-0.2c0.5,0,1.5-0.3,1.6-1.6V9.9C489.5,8.6,488.6,8.5,488.1,8.6z"/>
		<path class="st0" d="M488.1,0c-7.1,0-13.2,5.7-13.7,12.8s4.8,12.8,11.9,12.8s13.2-5.7,13.7-12.8S495.1,0,488.1,0z M492.2,9.7
			l-0.1,0.6c-0.1,1-0.7,2.9-2.5,3.9l2.4,4.3l-2.9,0.3l-2.2-3.9l-1.2,0.1l-0.4,4.1l-2.6,0.2l1.2-12.8l4.5-0.4
			C491.9,5.7,492.3,8.4,492.2,9.7z"/>
	</g>
</g>
</svg>
